<?xml version="1.0" encoding="UTF-8" standalone="no"?>
<!-- Created with Inkscape (http://www.inkscape.org/) -->

<svg
   xmlns:dc="http://purl.org/dc/elements/1.1/"
   xmlns:cc="http://creativecommons.org/ns#"
   xmlns:rdf="http://www.w3.org/1999/02/22-rdf-syntax-ns#"
   xmlns:svg="http://www.w3.org/2000/svg"
   xmlns="http://www.w3.org/2000/svg"
   xmlns:sodipodi="http://sodipodi.sourceforge.net/DTD/sodipodi-0.dtd"
   xmlns:inkscape="http://www.inkscape.org/namespaces/inkscape"
   width="153.3"
   height="117"
   id="svg2"
   version="1.1"
   inkscape:version="0.48.2 r9819"
   sodipodi:docname="Новый документ 1">
  <defs
     id="defs4" />
  <sodipodi:namedview
     id="base"
     pagecolor="#ffffff"
     bordercolor="#666666"
     borderopacity="1.0"
     inkscape:pageopacity="0.0"
     inkscape:pageshadow="2"
     inkscape:zoom="2.8"
     inkscape:cx="141.09974"
     inkscape:cy="34.285714"
     inkscape:document-units="px"
     inkscape:current-layer="layer1"
     showgrid="false"
     inkscape:window-width="1400"
     inkscape:window-height="988"
     inkscape:window-x="-8"
     inkscape:window-y="-8"
     inkscape:window-maximized="1" />
  <metadata
     id="metadata7">
    <rdf:RDF>
      <cc:Work
         rdf:about="">
        <dc:format>image/svg+xml</dc:format>
        <dc:type
           rdf:resource="http://purl.org/dc/dcmitype/StillImage" />
        <dc:title></dc:title>
      </cc:Work>
    </rdf:RDF>
  </metadata>
  <g
     inkscape:label="Layer 1"
     inkscape:groupmode="layer"
     id="layer1"
     transform="translate(0,-935.3622)">
    <path
       inkscape:connector-curvature="0"
       style="fill:#0059d0;fill-opacity:1;stroke:#0059d0;stroke-width:1.25;stroke-linecap:butt;stroke-linejoin:bevel;stroke-miterlimit:4;stroke-opacity:1;stroke-dasharray:none;display:inline"
       d="m 1.3481914,955.88228 0.59375,0.3125 0.90625,0 0.28125,0.59375 0,0.59375 1.21875,1.21875 0,0.59375 0.875,0.90625 0.90625,0 0.3125,0.28125 0.28125,0 0,0.3125 1.21875,1.1875 0.28125,0 0.90625,-0.875 0.9062496,0 0.3125,0.28125 0,0.3125 0.28125,0.90625 -0.28125,0.28125 0,0.3125 -0.9062496,0 -0.59375,0.28125 -0.3125,0.3125 0,0.3125 0.3125,0.59375 0.28125,0.90625 0.3125,0.59375 0,0.90625 0.28125,0 0.6249996,0.59375 0.875,0.28125 0.625,0 0.59375,-0.28125 0.28125,0 0.3125,0.28125 0.3125,0.625 0.28125,0.875 0.59375,0.625 0.3125,0.875 0.3125,0.625 0.59375,0.59375 0.90625,0.59375 0.28125,0.3125 0,0.28125 0.3125,0.3125 -0.3125,0.59375 0,0.90625 -0.28125,0.59375 0,2.40625 -0.3125,0 0,0.28125 -0.3125,0 -0.28125,-0.28125 -0.90625,0 0,0.90625 0.3125,0.875 0.28125,0.625 0.59375,0.59375 0.625,1.1875 0.875,1.21875 1.218751,0 0.28125,-0.3125 0.3125,0.3125 0.3125,0 1.1875,1.1875 0,0.3125 0.59375,0 0.3125,-0.3125 0.28125,0 0,0.3125 0.90625,0.28125 0.90625,0.90625 0,3.59375 0.59375,0.59375 0.90625,0.3125 0.90625,0 0.59375,0.3125 1.8125,0.59375 0.59375,0.28125 0.28125,0.3125 0,0.59375 0.3125,0.90626 0,1.1875 0.59375,0.625 0,0.2812 1.21875,0.5938 0.28125,0.3125 0,0.3125 0.3125,1.1875 0,1.5 -0.3125,0.31251 0,0.2812 -0.28125,0 -0.90625,0.5938 -0.3125,0.3125 0,0.3125 -0.59375,0.5937 -0.3125,0.5938 -0.59375,0.5937 -0.28125,0.9063 0,0.5937 0.59375,0.9063 0.28125,0.5937 1.5,1.5 0.625,0.9063 0,0.3125 0.28125,0.875 0.3125,0.625 0.28125,0.875 0.625,0.625 0.28125,0.875 0.3125,0.625 0,3.875 -0.3125,0.9062 1.8125,0.5938 0.59375,0.625 1.8125,0.5937 0.59375,0.2813 0.90625,0.3125 0.875,0.5937 0.625,0.3125 0.875,0.2813 0.625,0.3125 0.875,0.5937 0.90625,0.3125 0.59375,0.2813 0.90625,0.625 0.59375,0.5937 0.90625,0.5938 0.90625,0.3125 0.59375,0.5937 0.90625,0.5938 0.59375,0.5937 0.90625,1.8125 0,0.2813 1.1875,1.2187 1.5,0 0.90625,0.2813 1.8125,0 0,0.3125 0.28125,0.5937 0.625,0.3125 0.875,0.2813 0.3125,0.3125 0,0.3125 -0.3125,0.2812 -0.875,0 0,1.2188 -0.3125,0.2812 0,0.3125 -0.59375,0.2813 0,0.3125 0.28125,0 0.625,0.5937 0.875,1.2188 0.3125,0.2812 0,0.3125 0.90625,0.2813 0,0.3125 0.28125,0.3125 0.625,0 0.28125,-0.3125 0,-0.3125 0.3125,-0.2813 0.28125,0 0.625,0.2813 0.875,0.3125 1.21875,0.5937 0.59375,0.5938 1.8125,0.625 0.59375,0.5937 0,0.2813 1.1875,0 0.3125,-0.2813 0.59375,-0.9062 0.59375,0 0.59375,0.3125 0.90625,0.5937 0.3125,0 0.59375,0.5938 0,0.3125 0.59375,1.1875 0,0.5937 0.3125,0 0.59375,-0.5937 0,-1.5 0.59375,-0.5938 1.21875,0 0.59375,-0.3125 0.28125,-0.2812 0.625,-0.3125 0.875,0 1.21875,1.1875 0.59375,0.3125 2.40625,0 1.5,1.5 0.28125,0.5937 0.625,0.3125 1.1875,1.1875 0.90625,0.3125 1.1875,1.1875 0.90625,0.3125 0.59375,0.5938 1.5,0 0.90625,0.9062 0.59375,0.2813 1.8125,0 1.1875,0.625 0.9063,0.2812 1.1875,1.8125 0.625,0 0.5937,-0.3125 0.9063,-0.5937 1.187498,-1.1875 0,-0.3125 -0.906298,-0.9063 0,-0.9062 0.5938,-0.5938 0.312498,-0.5937 0.5937,0 0.3125,-0.3125 0,-1.5 -0.3125,-0.2813 0,-0.3125 -1.499998,-1.5 0,-2.0937 0.5938,-0.9063 0.624998,-1.7812 0,-0.3125 0.2812,0 0.3125,-0.3125 0.2813,-0.5938 0.9062,-0.2812 0.9063,0 0.3125,-0.3125 0,-0.3125 -0.3125,-0.2813 -0.9063,0 0,-0.5937 0.3125,0 0,-0.3125 0.5938,-0.3125 1.1875,-1.1875 0.625,-0.9063 0,-1.1875 0.2812,-0.3125 0.9063,0 0.5937,-0.2812 1.81251,-0.625 0.5938,-0.2813 0.9062,-0.3125 0.9063,-0.5937 0.5937,-0.3125 1.7813,-0.5938 0.625,-0.2812 0.875,0 1.8125,-0.625 0.9062,0 1.7813,-0.5938 0.3125,-0.2812 0.3125,0 0.2812,-0.625 0.9063,-0.875 2.0937,0 0.5938,-0.625 0.3125,0 1.1875,0.625 0.3125,0 0,0.5937 -0.3125,0 -0.2813,0.2813 0,0.9062 1.1875,0 0.5938,-0.5937 0,-0.9063 0.9062,-0.9062 1.2188,0 0.875,0.9062 0.9062,0.3125 0,-1.5 -0.2812,-0.9062 0,-0.5938 -0.3125,-0.3125 -0.3125,-0.9062 -0.5938,-0.5938 0,-0.9062 0.9063,-1.7813 2.6875,-2.7187 0.3125,0 0.3125,0.3125 0.2812,0 0.3125,0.3125 0,0.2812 0.5938,0.3125 0.3125,0.2813 0.2812,0 0.9063,0.3125 4.5,0 0.9062,-0.3125 0.5938,-0.5938 0.9062,-0.2812 1.1875,-1.2188 0.9063,-0.5937 0.3125,-0.9063 1.1875,-1.7812 0.5937,-0.625 0,-0.5938 -0.5937,-0.5937 0.3125,-0.3125 0,-0.5938 -0.3125,-0.2812 -0.5938,-0.3125 -0.3125,-0.3125 0,-0.5938 -0.2812,-0.2812 -0.3125,-0.625 0,-0.5938 0.3125,-0.2812 0,-0.3125 0.2812,-0.3125 0.5938,0 0.625,-0.2813 0.2812,0 0.9063,0.2813 0.9062,0 0.9063,0.3125 0.2812,0 0.3125,-0.5938 0.2813,0 0.9062,-0.3125 0.3125,0 0,-0.9062 -0.5937,-0.2813 -2.7188,-1.8125 0,-0.59371 0.3125,-0.3125 3,0 0,-0.2813 0.2813,0 0,-0.5937 -0.5938,-0.9063 -0.5937,-1.2187 -0.3125,-0.875 -0.5938,-0.625 -0.5937,-1.1875 0,-0.90626 0.5937,-0.28125 0,-1.21875 -0.2812,0 0,-0.28125 -2.125,0 0,0.28125 -0.2813,0.59375 0,0.3125 -1.2187,0 -0.5938,-0.3125 -0.9062,-0.28125 -0.5938,0 -0.2812,-0.3125 0,-0.28125 -0.3125,-0.3125 0,-0.3125 -1.1875,-0.28125 -0.3125,0 -0.3125,-0.3125 0,-1.1875 -0.2813,-0.3125 -0.9062,-0.59375 -0.3125,-0.3125 0,-0.28125 -0.2813,-0.3125 -0.3125,-1.1875 0,-2.09375 0.3125,-0.90625 -0.3125,-0.3125 0,-0.90625 -0.2812,-0.28125 -0.9063,-0.59375 -0.3125,-0.3125 -0.5937,0 -0.3125,0.3125 -0.5938,0.28125 -0.9062,0 -0.875,-0.59375 -1.8125,-0.59375 -0.3125,-0.3125 -0.5938,-0.90625 -0.2812,0 -0.3125,-0.28125 -2.6875,0 0,-0.3125 -0.625,-0.28125 -0.5938,-0.625 -0.9062,-0.28125 -0.2813,0 -0.3125,-0.3125 -0.2812,-0.90625 -0.3125,0 0,-0.28125 -0.3125,-0.3125 -0.2813,-0.90625 0,-1.1875 -0.3125,-0.59375 -0.2812,-0.90625 0,-0.3125 0.2812,-0.59375 2.7188,-2.6875 0.2812,-0.59375 0,-4.21875 -0.5937,-0.90625 -0.5938,-0.28125 -0.9062,0 -0.9063,-0.3125 -0.9062,0 -0.5938,-0.28125 -1.1875,0.28125 -1.2187,0.59375 -0.875,0.625 -0.3125,-0.3125 -0.3125,0 -0.5938,-0.59375 -0.9062,0 0,0.28125 -0.2813,0.3125 0,0.90625 -0.3125,0 0,0.28125 -0.2812,0.3125 -3.625,0 -0.875,-0.3125 -0.9063,0 -0.9062,-0.28125 -0.5938,0.28125 -0.9062,0.3125 -0.90631,0.59375 -0.2812,0 0,-1.1875 -0.625,-0.59375 0,-1.8125 1.21871,0 0.2813,-0.3125 0.3125,0 0,-0.28125 0.3125,0 0,-1.5 -0.3125,-0.3125 0,-0.28125 -0.3125,0 -0.59381,-0.625 -0.9062,-0.59375 -0.2813,-0.28125 0,-0.625 -0.5937,-0.59375 -0.3125,0 0,-1.1875 -0.3125,-0.3125 -0.875,0 -0.3125,0.3125 -0.3125,0 0,0.28125 -0.2813,0 -0.5937,-0.28125 0,-0.3125 -0.3125,-0.28125 0,-2.40625 0.5937,-1.21875 0,-0.875 -2.0937,-2.125 -0.5938,-0.28125 -0.9062,-0.90625 -0.593798,-0.90625 -1.2187,-1.1875 0,-0.3125 -0.2813,-0.59375 0,-4.1875 0.2813,-0.625 0,-0.28125 -0.2813,0 0,-0.3125 -0.9062,-0.28125 -1.1875,0 0,0.28125 -0.625,0.59375 -0.875,0 -0.62505,0.3125 -0.28125,0.3125 -0.3125,0 -0.90625,0.28125 -0.28125,0.3125 0.28125,0.28125 0,0.3125 -0.28125,0.3125 -0.3125,0 -0.90625,-0.3125 -0.28125,0 -0.3125,0.3125 -0.28125,0 -0.3125,0.28125 0,0.90625 -0.3125,0.3125 -0.28125,0 -0.90625,-0.625 -0.59375,-0.28125 -1.8125,-0.59375 -0.59375,-0.625 -0.90625,-0.59375 -1.1875,-1.1875 -1.21875,0 -0.875,0.28125 -0.625,0.3125 -0.875,0.3125 -0.625,0.28125 -0.28125,0 0,0.3125 -0.3125,0.28125 0.3125,0 0.59375,0.625 0.59375,0.28125 0.3125,0.3125 -0.3125,0.28125 -0.90625,0.3125 -1.78125,0 -1.21875,0.3125 -0.59375,0.59375 -0.59375,-0.3125 -1.8125,-0.59375 -0.59375,-0.3125 -2.6875,-0.875 -0.90625,0 -0.90625,-0.3125 -0.90625,0 -0.875,-0.3125 -0.90625,0 -0.90625,-0.28125 -0.90625,0 -1.78125,-0.59375 -0.90625,0 -0.90625,-0.3125 -0.90625,0 -0.90625,-0.3125 -0.28125,0 -1.21875,-0.59375 -0.28125,-0.28125 -0.3125,0 -0.28125,-0.3125 -1.21875,0 -1.1875,0.3125 -0.90625,0.875 0,0.3125 -0.3125,0.3125 -1.5,0 -0.59375,-0.3125 -1.78125,0 -1.8125,-0.59375 -0.59375,-0.59375 -0.59375,0.875 -0.3125,0.625 -0.3125,0.875 -0.59375,0.625 -0.59375,0.875 -1.1875,0.3125 -0.90625,0.90625 -0.3125,0.59375 -0.28125,0.3125 0,0.28125 -0.90625,0 -0.90625,0.59375 -0.59375,0.625 -0.59375,1.1875 0,0.3125 -0.3125,0.28125 -2.09375,0 -0.59375,0.3125 -0.90625,0.28125 -0.59375,0.3125 -0.90625,0.59375 -0.59375,0.3125 -0.90625,0.28125 -1.8125,0 0,-0.28125 -0.28125,-0.3125 -0.625,0 -0.59375,0.3125 -5.40625,0 -1.1875,-0.3125 0,-0.28125 -0.59375,-0.625 0,-0.875 -0.59375,-0.625 -1.500001,0 -0.625,0.3125 -0.59375,0.59375 -0.59375,0 -0.3125,-0.28125 0,-0.3125 -0.28125,-0.3125 -1.5,0 -1.8125,0.625 -0.90625,0.59375 -0.28125,0 -0.59375,0.59375 -0.6249996,1.1875 -0.59375,0.625 -0.59375,0.28125 -0.90625,0 -0.28125,-0.28125 -2.71875,0 -0.59375,0.875 -0.59375,1.8125 -0.59375,0.90625 -0.3125,0.28125 0,0.625 0.3125,0.28125 -0.3125,0.3125 0,0.28125 -0.59375,0.90625 -0.59375,0.59375 z"
       id="path7259" />
    <polygon
       style="fill:#ffd700"
       transform="matrix(0.13409381,0,0,0.13409381,-2.9262383,935.20487)"
       id="polygon3764"
       points="800,480 632,432 680,600 520,600 568,432 400,480 400,320 568,368 520,200 680,200 632,368 800,320 " />
  </g>
</svg>
