<?xml version="1.0" encoding="UTF-8" standalone="no"?>
<svg
   xmlns:dc="http://purl.org/dc/elements/1.1/"
   xmlns:cc="http://creativecommons.org/ns#"
   xmlns:rdf="http://www.w3.org/1999/02/22-rdf-syntax-ns#"
   xmlns:svg="http://www.w3.org/2000/svg"
   xmlns="http://www.w3.org/2000/svg"
   xmlns:sodipodi="http://sodipodi.sourceforge.net/DTD/sodipodi-0.dtd"
   xmlns:inkscape="http://www.inkscape.org/namespaces/inkscape"
   inkscape:version="1.0 (4035a4fb49, 2020-05-01)"
   sodipodi:docname="Flag_of_Vinnytsia_Oblast.svg"
   id="svg1901"
   height="951.26349"
   width="916.99371"
   version="1.0">
  <metadata
     id="metadata45">
    <rdf:RDF>
      <cc:Work
         rdf:about="">
        <dc:format>image/svg+xml</dc:format>
        <dc:type
           rdf:resource="http://purl.org/dc/dcmitype/StillImage" />
        <dc:title></dc:title>
      </cc:Work>
    </rdf:RDF>
  </metadata>
  <sodipodi:namedview
     inkscape:current-layer="layer1"
     inkscape:window-maximized="1"
     inkscape:window-y="-8"
     inkscape:window-x="-8"
     inkscape:cy="1127.515"
     inkscape:cx="3324.2308"
     inkscape:zoom="0.22192403"
     fit-margin-bottom="0"
     fit-margin-right="0"
     fit-margin-left="0"
     fit-margin-top="0"
     showgrid="false"
     id="namedview43"
     inkscape:window-height="1017"
     inkscape:window-width="1920"
     inkscape:pageshadow="2"
     inkscape:pageopacity="0"
     guidetolerance="10"
     gridtolerance="10"
     objecttolerance="10"
     borderopacity="1"
     bordercolor="#666666"
     pagecolor="#ffffff" />
  <defs
     id="defs1903" />
  <g
     id="layer1"
     style="opacity:1"
     transform="translate(64.694993,191.72101)">
    <path
       id="path3673"
       style="opacity:0.99;fill:#ffffff;fill-opacity:1;fill-rule:nonzero;stroke:none;stroke-width:3;stroke-linecap:round;stroke-linejoin:miter;stroke-miterlimit:4;stroke-dasharray:none;stroke-dashoffset:0;stroke-opacity:1"
       d="m 504.28898,240.35459 c -25.76235,0.85564 -49.11403,-7.93143 -72.22591,-17.67767 -3.55122,27.35568 -4.50606,55.1441 0,83.84266 22.53262,-9.58859 46.00087,-13.98163 71.21575,-18.18275 z" />
    <path
       id="path3671"
       style="opacity:0.99;fill:#ffffff;fill-opacity:1;fill-rule:nonzero;stroke:none;stroke-width:3;stroke-linecap:round;stroke-linejoin:miter;stroke-miterlimit:4;stroke-dasharray:none;stroke-dashoffset:0;stroke-opacity:1"
       d="m 613.3839,241.36474 c 25.76235,0.85564 49.11403,-7.93143 72.22591,-17.67767 3.55122,27.35568 4.50606,55.1441 0,83.84266 -22.53262,-9.58859 -46.00087,-13.98163 -71.21575,-18.18275 z" />
    <g
       id="g3622"
       transform="matrix(0.6487328,0,0,0.6487328,166.59379,356.53498)">
      <path
         id="path3301"
         style="opacity:1;fill:#feff9d;fill-opacity:1;fill-rule:nonzero;stroke:none;stroke-width:5;stroke-linecap:round;stroke-linejoin:round;stroke-miterlimit:4;stroke-dasharray:none;stroke-dashoffset:0;stroke-opacity:1"
         d="m 67.28243,-227.07674 13.31547,-139.47474 19.69798,140.91628 c 13.05501,-4.42092 4.53841,-21.25563 13.13197,-36.87057 5.69004,-11.91628 22.00078,-16.66547 20.70814,-40.4061 1.00948,-15.92949 13.95567,-23.04343 23.73858,-31.81981 5.70182,2.85077 -7.9043,23.31644 -3.78807,37.62819 4.88117,13.71832 5.47111,26.74452 -10.35406,37.1231 -7.22799,4.90474 3.57775,34.67793 -11.4417,46.76283 l 108.53728,-90.00006 -85.71429,113.57143 c 12.35735,6.10522 18.23915,-11.82086 35.35714,-16.78572 12.44955,-4.40262 27.34117,3.77263 43.21429,-13.92857 11.97766,-10.55003 26.16231,-6.42601 39.28571,-5.71429 2.016,6.0476 -22.07639,10.89803 -29.28571,23.92858 -6.24881,13.15183 -15.04257,22.77989 -33.57143,18.92857 -8.57913,-1.64279 -22.34828,25.97942 -41.50578,25.26968 l 140.03813,13.40166 -140.91626,19.69797 c 4.42091,13.05501 21.25563,4.53841 36.87055,13.13197 11.91629,5.69005 16.66547,22.00079 40.40611,20.70815 15.92949,1.00948 23.04342,13.95567 31.81979,23.73858 -2.85075,5.70182 -23.31644,-7.9043 -37.62815,-3.78807 -13.71835,4.88116 -26.74455,5.47111 -37.12313,-10.35406 -4.90472,-7.22799 -34.67792,3.57775 -46.76283,-10.37026 L 245.3122,17.82671 131.74079,-67.88756 c -6.10523,12.35734 11.82086,18.23914 16.78571,35.35712 4.40262,12.44956 -3.77264,27.34117 13.92856,43.2143 10.55004,11.97766 6.42601,26.16231 5.71428,39.2857 C 162.12176,51.98557 157.27131,27.89317 144.24079,20.68387 131.08895,14.43504 121.46088,5.64128 125.3122,-12.88757 126.955,-21.46669 98.26136,-34.87871 99.80394,-52.93245 L 86.16369,88.56659 66.46571,-52.34967 c -13.055,4.42091 -4.53841,21.25563 -13.13197,36.87055 C 47.6437,-3.56283 31.33296,1.18635 32.6256,24.92699 31.61612,40.85648 18.66993,47.97041 8.88702,56.74678 3.1852,53.89603 16.79131,33.43034 12.67509,19.11862 7.79392,5.40028 7.20398,-7.62592 23.02915,-18.0045 30.25714,-22.90922 19.4514,-52.68242 34.1137,-66.55303 L -74.78074,21.66131 10.93353,-91.9101 c -12.35734,-6.10523 -18.23914,11.82085 -35.35712,16.78571 -12.44956,4.40262 -27.34117,-3.77264 -43.2143,13.92856 -11.97766,10.55004 -26.16231,6.42601 -39.2857,5.71428 -2.01601,-6.04758 22.07639,-10.89803 29.2857,-23.92856 6.24882,-13.15183 15.04258,-22.7799 33.57143,-18.92858 8.57913,1.6428 21.99114,-27.05084 41.47345,-26.22255 l -140.07047,-14.35454 140.91626,-19.69798 c -4.42091,-13.05501 -21.25562,-4.53841 -36.87055,-13.13197 -11.91629,-5.69004 -16.66547,-22.00078 -40.40611,-20.70814 -15.92949,-1.00948 -23.04342,-13.95567 -31.81979,-23.73858 2.85076,-5.70182 23.31644,7.9043 37.62817,3.78807 13.71833,-4.88117 26.74453,-5.47111 37.12311,10.35406 4.90473,7.22799 34.67792,-3.57775 47.4771,11.08455 l -89.28577,-108.89442 113.57142,85.71427 c 6.10523,-12.35734 -11.82085,-18.23914 -16.78571,-35.35713 -4.40262,-12.44955 3.77263,-27.34116 -13.92857,-43.21429 -10.55004,-11.97766 -6.42601,-26.16231 -5.71428,-39.28571 6.04759,-2.016 10.89803,22.0764 23.92857,29.28571 13.15183,6.24881 22.77989,15.04258 18.92857,33.57143 -1.64279,8.57913 27.23433,21.91745 25.18349,42.06917 z" />
      <path
         id="path3270"
         style="opacity:1;fill:#ca9702;fill-opacity:1;fill-rule:nonzero;stroke:none;stroke-width:5;stroke-linecap:round;stroke-linejoin:round;stroke-miterlimit:4;stroke-dashoffset:0;stroke-opacity:1"
         d="m 150.89186,-114.73438 c 7.92692,7.17118 14.34475,12.81616 33.91643,12.04648 10.90362,-0.27244 23.38962,6.01876 32.54028,17.48115 6.45928,6.35907 15.94883,5.42682 26.08987,3.72614 10.04513,-2.541 19.46415,8.00817 26.62034,14.58843 -11.31509,-3.47113 -21.60498,-9.18349 -41.31786,-3.57843 -10.08043,1.71062 -13.6983,-0.10917 -20.21722,-4.70396 -5.18773,-4.42455 -14.15363,-12.22923 -30.91472,-11.23201 -12.1372,1.55968 -18.51616,-3.26366 -30.44075,-12.10886 z" />
      <path
         id="path3268"
         style="opacity:1;fill:#ca9702;fill-opacity:1;fill-rule:nonzero;stroke:none;stroke-width:5;stroke-linecap:round;stroke-linejoin:round;stroke-miterlimit:4;stroke-dashoffset:0;stroke-opacity:1"
         d="m 129.62253,-82.38523 c -0.44212,10.68019 -2.64413,21.3262 10.46609,35.87836 7.18366,8.2072 10.1297,19.90833 9.34392,34.09263 -0.44004,13.87993 6.46461,15.13663 14.14213,24.49621 8.37836,6.09627 5.97542,18.02609 5.49456,27.73587 -4.56922,-10.91798 -6.7599,-22.48145 -23.67731,-34.04932 -7.76265,-6.65452 -7.4435,-10.23279 -8.08122,-18.18275 3.35216,-6.51818 -0.88698,-19.06855 -12.37437,-31.31471 -8.96218,-8.33208 -9.3347,-16.32064 -10.1628,-31.14452 z" />
      <path
         id="path3266"
         style="opacity:1;fill:#ca9702;fill-opacity:1;fill-rule:nonzero;stroke:none;stroke-width:5;stroke-linecap:round;stroke-linejoin:round;stroke-miterlimit:4;stroke-dashoffset:0;stroke-opacity:1"
         d="M 74.62751,-63.39002 C 66.76285,-56.15061 57.67792,-50.1798 56.65832,-30.61954 55.93457,-19.73656 49.74378,-9.37945 39.15834,0.09474 29.03259,9.59818 33.0263,15.36912 31.8369,27.41617 33.45058,37.65128 23.31579,44.3878 16.10992,50.91363 20.59917,39.96253 27.22673,30.23688 23.44403,10.09474 22.66047,-0.09974 25.41636,-2.40428 30.58689,-8.47669 37.56628,-10.7154 43.44321,-22.58738 43.97974,-39.36954 43.53419,-51.59842 48.91955,-57.5106 58.81605,-68.57822 Z" />
      <path
         id="path3264"
         style="opacity:1;fill:#ca9702;fill-opacity:1;fill-rule:nonzero;stroke:none;stroke-width:5;stroke-linecap:round;stroke-linejoin:round;stroke-miterlimit:4;stroke-dashoffset:0;stroke-opacity:1"
         d="m 26.46311,-94.60181 c -10.68019,-0.44212 -21.32621,-2.64413 -35.87837,10.46609 -8.2072,7.18366 -19.90833,10.12969 -34.09263,9.34392 -13.87993,-0.44004 -15.13662,6.46461 -24.49621,14.14213 -6.09627,8.37836 -18.02609,5.97542 -27.73586,5.49456 10.91797,-4.56922 22.48144,-6.7599 34.04931,-23.67732 6.65452,-7.76264 10.23279,-7.44349 18.18275,-8.08121 6.51818,3.35216 19.06855,-0.88698 31.31472,-12.37437 8.33207,-8.96218 16.32064,-9.3347 31.14451,-10.1628 z" />
      <path
         id="path3261"
         style="opacity:1;fill:#ca9702;fill-opacity:1;fill-rule:nonzero;stroke:none;stroke-width:5;stroke-linecap:round;stroke-linejoin:round;stroke-miterlimit:4;stroke-dashoffset:0;stroke-opacity:1"
         d="m 154.25033,-143.94105 131.58086,2.27282 -135.04025,17.45667 z" />
      <path
         id="path3259"
         style="opacity:1;fill:#ca9702;fill-opacity:1;fill-rule:nonzero;stroke:none;stroke-width:5;stroke-linecap:round;stroke-linejoin:round;stroke-miterlimit:4;stroke-dashoffset:0;stroke-opacity:1"
         d="M 137.36577,-90.24235 228.97894,8.15649 120.96876,-78.73765 Z" />
      <path
         id="path3257"
         style="opacity:1;fill:#ca9702;fill-opacity:1;fill-rule:nonzero;stroke:none;stroke-width:5;stroke-linecap:round;stroke-linejoin:round;stroke-miterlimit:4;stroke-dashoffset:0;stroke-opacity:1"
         d="m 81.78685,-65.40026 4.79819,134.35878 14.9313,-137.81817 z" />
      <path
         id="path3255"
         style="opacity:1;fill:#ca9702;fill-opacity:1;fill-rule:nonzero;stroke:none;stroke-width:5;stroke-linecap:round;stroke-linejoin:round;stroke-miterlimit:4;stroke-dashoffset:0;stroke-opacity:1"
         d="M 28.59629,-87.05762 -63.01688,11.34122 44.99331,-75.55292 Z" />
      <path
         id="path3253"
         style="opacity:1;fill:#ca9702;fill-opacity:1;fill-rule:nonzero;stroke:none;stroke-width:5;stroke-linecap:round;stroke-linejoin:round;stroke-miterlimit:4;stroke-dashoffset:0;stroke-opacity:1"
         d="m 9.02273,-150.76389 c -7.23941,-7.86466 -13.21023,-16.94959 -32.77048,-17.9692 -10.88299,-0.72375 -21.24009,-6.91454 -30.71428,-17.49998 -9.50344,-10.12574 -15.27438,-6.13204 -27.32143,-7.32144 -10.23511,1.61368 -17.22417,-7.25841 -23.75,-14.46428 10.9511,4.48925 20.92929,9.85411 41.07143,6.07141 10.19447,-0.78356 12.49902,1.97233 18.57143,7.14287 2.23871,6.97939 14.11068,12.85631 30.89285,13.39285 12.22888,-0.44556 18.14106,4.9398 29.20868,14.83631 z" />
      <path
         id="path3251"
         style="opacity:1;fill:#ca9702;fill-opacity:1;fill-rule:nonzero;stroke:none;stroke-width:5;stroke-linecap:round;stroke-linejoin:round;stroke-miterlimit:4;stroke-dashoffset:0;stroke-opacity:1"
         d="m 10.31959,-143.28668 -134.35878,4.7982 137.81817,14.9313 z" />
      <path
         id="path3231"
         style="opacity:1;fill:#ca9702;fill-opacity:1;fill-rule:nonzero;stroke:none;stroke-width:5;stroke-linecap:round;stroke-linejoin:round;stroke-miterlimit:4;stroke-dashoffset:0;stroke-opacity:1"
         d="m 54.58797,-207.39751 c -2.84088,-9.41749 0.37128,-19.55845 -12.73894,-34.1106 -7.18367,-8.20721 -13.41268,-17.13042 -12.62691,-31.31473 0.44002,-13.87992 -5.45447,-16.14677 -15.15228,-23.99111 -8.37836,-6.09629 -9.57225,-16.80673 -9.09138,-26.51651 l 16.66752,20.20305 13.63706,9.59644 c 7.76264,6.65452 7.44351,14.77847 8.08122,22.72844 -1.33762,7.91286 9.1665,15.82571 14.39467,23.73858 6.08151,8.33206 10.48605,17.58332 11.93057,32.4072 z" />
      <path
         id="path3227"
         style="opacity:1;fill:#ca9702;fill-opacity:1;fill-rule:nonzero;stroke:none;stroke-width:5;stroke-linecap:round;stroke-linejoin:round;stroke-miterlimit:4;stroke-dashoffset:0;stroke-opacity:1"
         d="m 32.82828,-195.54338 -93.85317,-86.5624 82.34847,102.95942 z" />
      <path
         id="path3224"
         style="opacity:1;fill:#ca9702;fill-opacity:1;fill-rule:nonzero;stroke:none;stroke-width:5;stroke-linecap:round;stroke-linejoin:round;stroke-miterlimit:4;stroke-dashoffset:0;stroke-opacity:1"
         d="m 108.98385,-209.83158 c 4.65036,-8.66797 14.09245,-13.56737 15.11204,-33.12762 0.72376,-10.88301 2.62884,-21.59724 13.21429,-31.07144 10.12573,-9.50343 7.5606,-15.27439 6.25,-27.67856 -1.61367,-10.23511 5.11555,-18.65274 12.32143,-25.17858 l -2.5,26.07143 2.85715,16.42857 c 0.78356,10.19448 -5.1866,15.71331 -10.35715,21.78572 -6.54107,4.64939 -4.70878,17.67216 -6.60714,26.96428 -1.59138,10.19194 -5.01852,19.84804 -14.47916,31.35153 z m -25.95938,-6.88288 0.35714,-112.67332 17.85714,117.14286 z" />
      <path
         id="path3219"
         style="opacity:1;fill:#ca9702;fill-opacity:1;fill-rule:nonzero;stroke:none;stroke-width:5;stroke-linecap:round;stroke-linejoin:round;stroke-miterlimit:4;stroke-dashoffset:0;stroke-opacity:1"
         d="m 151.50218,-167.77862 c 9.41748,-2.84088 17.77273,-3.55729 32.32488,-16.66751 8.20722,-7.18367 17.13042,-13.41269 31.31473,-12.62691 13.87992,0.44003 16.14678,-5.45448 23.99112,-15.15228 6.09628,-8.37836 16.80672,-9.57224 26.51651,-9.09138 l -20.20305,16.66752 -9.59645,13.63706 c -6.65452,7.76265 -14.77846,7.44351 -22.72843,8.08122 -7.91286,-1.33762 -15.82572,9.16649 -23.73858,14.39467 L 170.19,-157.67709 Z m -13.13198,-29.29442 77.78174,-77.27667 -70.2056,95.45942 z" />
      <path
         id="path3299"
         style="opacity:1;fill:#feff9d;fill-opacity:1;fill-rule:nonzero;stroke:#facb16;stroke-width:6.16587;stroke-linecap:round;stroke-linejoin:round;stroke-miterlimit:4;stroke-dasharray:none;stroke-dashoffset:0;stroke-opacity:1"
         d="m 162.08846,-139.43343 c 0.01,42.68559 -34.59108,77.29425 -77.27667,77.29425 -42.68559,0 -77.28638,-34.60866 -77.27667,-77.29425 -0.00971,-42.68559 34.59108,-77.29425 77.27667,-77.29425 42.68559,0 77.28638,34.60866 77.27667,77.29425 z" />
      <path
         id="path3307"
         style="opacity:1;fill:#fed55c;fill-opacity:1;fill-rule:nonzero;stroke:none;stroke-width:4;stroke-linecap:round;stroke-linejoin:round;stroke-miterlimit:4;stroke-dasharray:none;stroke-dashoffset:0;stroke-opacity:1"
         d="m 115.8943,-156.91947 c -4.04977,7.33343 -11.01921,7.73262 -20.45559,2.27285 7.31117,-11.59569 13.77383,-4.52418 20.45559,-2.27285 z" />
      <path
         id="path3305"
         style="opacity:1;fill:#fed55c;fill-opacity:1;fill-rule:nonzero;stroke:none;stroke-width:4;stroke-linecap:round;stroke-linejoin:round;stroke-miterlimit:4;stroke-dasharray:none;stroke-dashoffset:0;stroke-opacity:1"
         d="m 51.24454,-156.91948 c 4.04977,7.33343 11.01921,7.73262 20.45559,2.27285 -7.31117,-11.59569 -13.77383,-4.52418 -20.45559,-2.27285 z" />
      <path
         id="path2218"
         style="opacity:1;fill:none;fill-opacity:1;fill-rule:nonzero;stroke:#facb16;stroke-width:7.70733;stroke-linecap:round;stroke-linejoin:round;stroke-miterlimit:4;stroke-dasharray:none;stroke-dashoffset:0;stroke-opacity:1"
         d="m 67.28243,-227.07674 13.31547,-139.47474 19.69798,140.91628 c 13.05501,-4.42092 4.53841,-21.25563 13.13197,-36.87057 5.69004,-11.91628 22.00078,-16.66547 20.70814,-40.4061 1.00948,-15.92949 13.95567,-23.04343 23.73858,-31.81981 5.70182,2.85077 -7.9043,23.31644 -3.78807,37.62819 4.88117,13.71832 5.47111,26.74452 -10.35406,37.1231 -7.22799,4.90474 3.57775,34.67793 -11.4417,46.76283 l 108.53728,-90.00006 -85.71429,113.57143 c 12.35735,6.10522 18.23915,-11.82086 35.35714,-16.78572 12.44955,-4.40262 27.34117,3.77263 43.21429,-13.92857 11.97766,-10.55003 26.16231,-6.42601 39.28571,-5.71429 2.016,6.0476 -22.07639,10.89803 -29.28571,23.92858 -6.24881,13.15183 -15.04257,22.77989 -33.57143,18.92857 -8.57913,-1.64279 -22.34828,25.97942 -41.50578,25.26968 l 140.03813,13.40166 -140.91626,19.69797 c 4.42091,13.05501 21.25563,4.53841 36.87055,13.13197 11.91629,5.69005 16.66547,22.00079 40.40611,20.70815 15.92949,1.00948 23.04342,13.95567 31.81979,23.73858 -2.85075,5.70182 -23.31644,-7.9043 -37.62815,-3.78807 -13.71835,4.88116 -26.74455,5.47111 -37.12313,-10.35406 -4.90472,-7.22799 -34.67792,3.57775 -46.76283,-10.37026 L 245.3122,17.82671 131.74079,-67.88756 c -6.10523,12.35734 11.82086,18.23914 16.78571,35.35712 4.40262,12.44956 -3.77264,27.34117 13.92856,43.2143 10.55004,11.97766 6.42601,26.16231 5.71428,39.2857 C 162.12176,51.98557 157.27131,27.89317 144.24079,20.68387 131.08895,14.43504 121.46088,5.64128 125.3122,-12.88757 126.955,-21.46669 98.26136,-34.87871 99.80394,-52.93245 L 86.16369,88.56659 66.46571,-52.34967 c -13.055,4.42091 -4.53841,21.25563 -13.13197,36.87055 C 47.6437,-3.56283 31.33296,1.18635 32.6256,24.92699 31.61612,40.85648 18.66993,47.97041 8.88702,56.74678 3.1852,53.89603 16.79131,33.43034 12.67509,19.11862 7.79392,5.40028 7.20398,-7.62592 23.02915,-18.0045 30.25714,-22.90922 19.4514,-52.68242 34.1137,-66.55303 L -74.78074,21.66131 10.93353,-91.9101 c -12.35734,-6.10523 -18.23914,11.82085 -35.35712,16.78571 -12.44956,4.40262 -27.34117,-3.77264 -43.2143,13.92856 -11.97766,10.55004 -26.16231,6.42601 -39.2857,5.71428 -2.01601,-6.04758 22.07639,-10.89803 29.2857,-23.92856 6.24882,-13.15183 15.04258,-22.7799 33.57143,-18.92858 8.57913,1.6428 21.99114,-27.05084 41.47345,-26.22255 l -140.07047,-14.35454 140.91626,-19.69798 c -4.42091,-13.05501 -21.25562,-4.53841 -36.87055,-13.13197 -11.91629,-5.69004 -16.66547,-22.00078 -40.40611,-20.70814 -15.92949,-1.00948 -23.04342,-13.95567 -31.81979,-23.73858 2.85076,-5.70182 23.31644,7.9043 37.62817,3.78807 13.71833,-4.88117 26.74453,-5.47111 37.12311,10.35406 4.90473,7.22799 34.67792,-3.57775 47.4771,11.08455 l -89.28577,-108.89442 113.57142,85.71427 c 6.10523,-12.35734 -11.82085,-18.23914 -16.78571,-35.35713 -4.40262,-12.44955 3.77263,-27.34116 -13.92857,-43.21429 -10.55004,-11.97766 -6.42601,-26.16231 -5.71428,-39.28571 6.04759,-2.016 10.89803,22.0764 23.92857,29.28571 13.15183,6.24881 22.77989,15.04258 18.92857,33.57143 -1.64279,8.57913 27.23433,21.91745 25.18349,42.06917 z" />
      <path
         id="path3279"
         style="opacity:1;fill:none;fill-opacity:1;fill-rule:nonzero;stroke:#ca9702;stroke-width:7.70733;stroke-linecap:round;stroke-linejoin:round;stroke-miterlimit:4;stroke-dasharray:none;stroke-dashoffset:0;stroke-opacity:1"
         d="m 68.68516,-106.61048 c 10.2565,5.05211 20.21907,4.51952 30,0.53571" />
      <path
         id="path3281"
         style="opacity:1;fill:none;fill-opacity:1;fill-rule:nonzero;stroke:#ca9702;stroke-width:4.6244;stroke-linecap:round;stroke-linejoin:round;stroke-miterlimit:4;stroke-dasharray:none;stroke-dashoffset:0;stroke-opacity:1"
         d="m 78.68516,-88.21762 c 3.05868,-1.00673 6.11921,-1.99871 9.64286,0.71428" />
      <g
         id="g3287"
         style="opacity:1;stroke:#ca9702;stroke-width:1.54147;stroke-opacity:1"
         transform="translate(-387.74341,-474.62742)">
        <path
           id="path3283"
           style="opacity:1;fill:none;fill-opacity:1;fill-rule:nonzero;stroke:#ca9702;stroke-width:4.6244;stroke-linecap:round;stroke-linejoin:round;stroke-miterlimit:4;stroke-dasharray:none;stroke-dashoffset:0;stroke-opacity:1"
           transform="translate(52.857136,52.362194)"
           d="m 373.92857,269.40475 c 13.7819,-24.45414 25.85846,-21.33867 36.78572,0.35714 -13.41404,11.98276 -23.72787,11.82304 -31.42858,1.42857 6.98124,-9.2281 20.86874,-17.35914 27.86458,-3.21428 -7.86122,6.04541 -18.09012,6.48947 -20.72172,-2.67857" />
        <path
           id="path3285"
           style="opacity:1;fill:none;fill-opacity:1;fill-rule:nonzero;stroke:#ca9702;stroke-width:6.16587;stroke-linecap:round;stroke-linejoin:round;stroke-miterlimit:4;stroke-dasharray:none;stroke-dashoffset:0;stroke-opacity:1"
           transform="translate(52.857136,52.362194)"
           d="m 391.96429,266.90475 c 3.59839,0.0454 4.37121,-2.16969 5.71428,-3.92857" />
      </g>
      <g
         id="g3291"
         style="opacity:1;stroke:#ca9702;stroke-width:1.54147;stroke-opacity:1"
         transform="matrix(-1,0,0,1,554.61372,-474.62742)">
        <path
           id="path3293"
           style="opacity:1;fill:none;fill-opacity:1;fill-rule:nonzero;stroke:#ca9702;stroke-width:4.6244;stroke-linecap:round;stroke-linejoin:round;stroke-miterlimit:4;stroke-dasharray:none;stroke-dashoffset:0;stroke-opacity:1"
           transform="translate(52.857136,52.362194)"
           d="m 373.92857,269.40475 c 13.7819,-24.45414 25.85846,-21.33867 36.78572,0.35714 -13.41404,11.98276 -23.72787,11.82304 -31.42858,1.42857 6.98124,-9.2281 20.86874,-17.1066 27.86458,-2.96174 -7.86122,6.04541 -18.09012,6.23693 -20.72172,-2.93111" />
        <path
           id="path3295"
           style="opacity:1;fill:none;fill-opacity:1;fill-rule:nonzero;stroke:#ca9702;stroke-width:6.16587;stroke-linecap:round;stroke-linejoin:round;stroke-miterlimit:4;stroke-dasharray:none;stroke-dashoffset:0;stroke-opacity:1"
           transform="translate(52.857136,52.362194)"
           d="m 391.96429,266.90475 c 3.59839,0.0454 4.37121,-2.16969 5.71428,-3.92857" />
      </g>
      <path
         id="path3620"
         style="opacity:1;fill:none;fill-opacity:1;fill-rule:nonzero;stroke:#ca9702;stroke-width:4.6244;stroke-linecap:round;stroke-linejoin:round;stroke-miterlimit:4;stroke-dasharray:none;stroke-dashoffset:0;stroke-opacity:1"
         d="m 78.68516,-118.54301 c 3.05868,1.00672 6.11921,1.99871 9.64286,-0.71428" />
    </g>
    <path
       id="path3669"
       style="opacity:0.99;fill:#ffffff;fill-opacity:1;fill-rule:nonzero;stroke:none;stroke-width:3;stroke-linecap:round;stroke-linejoin:miter;stroke-miterlimit:4;stroke-dasharray:none;stroke-dashoffset:0;stroke-opacity:1"
       d="m 534.84532,211.31348 c 0.85564,-25.76235 -7.93143,-49.11403 -17.67767,-72.22591 27.35568,-3.55122 55.1441,-4.50606 83.84266,0 -9.58859,22.53262 -13.98163,46.00087 -18.18275,71.21575 z" />
    <path
       id="path3675"
       style="opacity:0.99;fill:#ffffff;fill-opacity:1;fill-rule:nonzero;stroke:none;stroke-width:3;stroke-linecap:round;stroke-linejoin:miter;stroke-miterlimit:4;stroke-dasharray:none;stroke-dashoffset:0;stroke-opacity:1"
       d="m 535.85547,321.41855 c 0.85564,25.76235 -7.93143,49.11403 -17.67767,72.22591 27.35568,3.55122 55.1441,4.50606 83.84266,0 -9.58859,-22.53262 -13.98163,-46.00087 -18.18275,-71.21575 z" />
    <path
       id="path3655"
       style="opacity:0.99;fill:#1059d3;fill-opacity:1;fill-rule:nonzero;stroke:#000000;stroke-width:3;stroke-linecap:round;stroke-linejoin:miter;stroke-miterlimit:4;stroke-dashoffset:0;stroke-opacity:1"
       d="M 613,200.55758 H 504.71429 V 309.129 c 1.15208,10.75269 4.33841,18.04255 13.57143,17.85715 h 29.28571 c 5.64262,0.0527 10.49753,1.20821 11.28572,7.85714 0.78818,-6.64893 5.64309,-7.80443 11.28571,-7.85714 h 29.28571 c 9.23302,0.1854 12.41935,-7.10446 13.57143,-17.85715 z" />
    <path
       id="path3662"
       style="opacity:0.99;fill:#ffffff;fill-opacity:1;fill-rule:nonzero;stroke:none;stroke-width:3;stroke-linecap:round;stroke-linejoin:miter;stroke-miterlimit:4;stroke-dashoffset:0;stroke-opacity:1"
       d="m 587.53125,207.78113 c -30.76442,0.0509 -55.71875,25.03624 -55.71875,55.8125 0,30.77626 24.95432,55.76167 55.71875,55.8125 -18.77359,-11.49949 -31.3125,-32.19904 -31.3125,-55.8125 -2e-5,-23.61305 12.53946,-44.31289 31.3125,-55.8125 z" />
    <path
       transform="translate(3.0000002,-0.2989894)"
       id="path876"
       d="m 440.81456,754.91872 c -6.43912,-7.38246 -5.86684,-6.08606 -5.17728,-11.72821 0.88065,-7.20557 0.59827,-8.21159 -3.43189,-12.22611 -5.58321,-5.56157 -5.8802,-6.37887 -4.05318,-11.15435 1.93627,-5.06103 0.51301,-10.41747 -4.14481,-15.59907 -1.08079,-1.20233 -3.0764,-2.7909 -4.43469,-3.53018 -2.29107,-1.24695 -2.69653,-1.31765 -5.60809,-0.97779 -7.55059,0.88135 -7.99823,0.7911 -12.90029,-2.60086 l -4.42958,-3.06505 -6.15731,-0.31807 c -6.51936,-0.33676 -8.21693,-0.19867 -10.27537,0.8359 -0.70297,0.35331 -1.59825,0.64238 -1.98952,0.64238 -0.39126,0 -2.26555,-1.40417 -4.16507,-3.12037 -4.81048,-4.34623 -6.88936,-5.22289 -14.3494,-6.05109 -3.37913,-0.37514 -9.06792,-1.43901 -12.64177,-2.36415 -8.50869,-2.20259 -10.57006,-2.45142 -12.72779,-1.53637 -1.41151,0.59859 -17.46304,13.12879 -23.60994,18.43046 -3.86878,3.33681 -4.58353,5.39687 -5.39666,15.55446 -0.47002,5.87129 -0.86455,8.30403 -1.62582,10.02501 l -1.0052,2.27243 -1.38799,-0.98834 c -0.7634,-0.54359 -2.32939,-2.03539 -3.47998,-3.31513 -1.786,-1.98646 -2.44273,-3.35334 -4.49004,-9.34533 -1.31893,-3.8602 -2.79235,-8.04167 -3.27426,-9.29216 l -0.8762,-2.2736 2.95826,-2.74927 2.95826,-2.74926 v -2.81936 c 0,-3.4497 -0.99655,-6.97612 -3.11986,-11.03998 -3.23096,-6.18382 -5.26615,-6.97164 -11.00118,-4.25852 -3.93644,1.86224 -7.28596,5.36238 -10.22253,10.68219 -4.68512,8.48745 -6.33662,10.13988 -10.13739,10.14315 -4.10004,0.003 -6.23914,-1.88269 -7.8848,-6.95268 -0.64415,-1.98453 -0.69493,-2.76957 -0.26368,-4.07627 0.55633,-1.6857 5.40046,-6.5629 9.96407,-10.03211 5.50712,-4.18645 8.77784,-9.5533 10.21559,-16.76257 0.95728,-4.80004 0.73601,-7.87392 -0.94586,-13.13964 -0.92758,-2.90415 -1.74114,-4.42754 -3.26104,-6.10633 -1.86024,-2.05469 -2.23523,-2.25337 -4.60548,-2.44004 l -2.58035,-0.20321 -2.5871,2.6413 c -1.42291,1.45271 -2.97561,2.6413 -3.45044,2.6413 -0.47484,0 -1.75402,-0.45439 -2.84263,-1.00976 -4.60364,-2.3486 -7.15683,-2.06158 -10.70022,1.20286 -1.20583,1.1109 -3.36389,2.87775 -4.79569,3.92633 -1.4318,1.04858 -4.19779,3.34095 -6.14665,5.09414 -4.74957,4.27272 -6.5247,5.14194 -9.98917,4.89134 -3.8442,-0.27806 -9.44068,-3.08239 -10.92929,-5.47654 -1.00519,-1.61668 -1.10806,-2.3756 -1.2225,-9.01968 -0.13896,-8.06728 -0.51146,-9.39395 -3.09295,-11.01545 -1.1733,-0.73698 -2.11915,-0.91315 -4.19064,-0.78052 -3.88005,0.24841 -5.42546,1.61531 -8.42217,7.44928 -3.21345,6.25592 -4.69369,7.34127 -10.01231,7.34127 -2.96468,0 -3.91739,-0.18686 -4.97558,-0.97589 -3.95658,-2.95019 -4.10289,-5.59088 -0.91625,-16.53702 3.51362,-12.06932 3.06869,-17.36818 -1.87332,-22.31018 -3.17973,-3.17974 -5.40975,-3.84598 -14.90732,-4.45368 -8.51186,-0.54464 -11.41471,-1.05706 -13.71919,-2.42177 -1.06186,-0.62884 -3.39033,-1.21304 -6.43622,-1.61483 -2.62485,-0.34625 -5.92627,-1.0642 -7.33649,-1.59544 -3.33788,-1.2574 -15.39038,-10.2901 -19.2595,-14.43394 -3.40467,-3.64643 -4.72559,-6.03868 -7.26975,-13.16588 -2.02815,-5.68165 -3.75983,-9.34017 -4.84872,-10.24386 -0.39882,-0.33099 -2.385639,-1.19945 -4.415153,-1.9299 -9.481438,-3.41252 -11.661095,-4.47549 -14.43079,-7.03761 -1.503606,-1.39092 -3.488808,-3.77177 -4.411559,-5.29078 -0.92275,-1.51902 -3.273513,-4.25213 -5.223917,-6.07359 -3.044179,-2.84293 -4.064315,-3.4843 -7.206212,-4.53065 -4.777853,-1.59117 -6.132505,-1.54006 -10.460391,0.39471 -3.69902,1.65363 -17.429341,5.0129 -20.489196,5.0129 -3.16314,0 -19.855665,-6.39201 -21.390255,-8.1909 -0.717045,-0.84053 -0.825048,-1.50572 -0.59055,-3.63704 0.873587,-7.9398 0.881714,-8.8062 0.09686,-10.32394 -1.5236,-2.94632 -4.2207085,-2.47581 -8.6478644,1.50859 -3.84357981,3.45919 -10.8177903,6.02199 -18.6714796,6.86115 -3.084271,0.32955 -3.625941,0.25348 -5.757271,-0.80861 -1.969265,-0.98133 -2.540762,-1.58322 -3.506776,-3.69327 -1.607067,-3.51029 -3.559534,-11.60221 -5.348379,-22.16612 -1.277673,-7.54521 -3.752947,-17.74923 -6.864937,-28.29987 l -0.663146,-2.24828 h 428.028596 428.0286 l 3.42614,4.36719 c 1.88439,2.40196 4.01713,5.54363 4.73938,6.9815 1.48154,2.94938 2.88537,8.58714 2.96058,11.88947 0.0661,2.90186 -1.66264,7.43437 -3.77825,9.90597 -1.47989,1.72896 -1.88292,1.94486 -3.31751,1.77738 -1.89187,-0.22086 -2.18457,0.24556 -3.91333,6.23532 -0.94168,3.26253 -1.25383,3.74291 -4.15265,6.38985 -5.77926,5.27715 -7.1348,6.81804 -7.72191,8.7776 -0.75803,2.53007 -0.12283,5.04541 1.59632,6.3214 1.21474,0.9016 1.5064,0.92708 4.2599,0.37218 1.76076,-0.35485 6.11911,-2.11928 10.77967,-4.36405 9.37883,-4.51732 11.37303,-4.93325 15.19643,-3.1695 1.44084,0.66467 4.03696,2.59707 6.00196,4.46754 3.16041,3.00836 3.4348,3.41762 3.14181,4.68639 -0.75551,3.27161 -6.87874,10.71979 -9.53303,11.59578 -0.92019,0.3037 -4.77658,0.81787 -8.56978,1.14261 -6.80187,0.58233 -6.91476,0.61059 -8.20532,2.055 -0.71973,0.8055 -1.41017,2.16621 -1.53432,3.02378 -0.12415,0.85758 -0.43631,3.11189 -0.6937,5.00958 -0.39868,2.93927 -0.73682,3.7806 -2.28297,5.67986 -3.30829,4.06396 -9.10454,9.86324 -10.73646,10.74208 -3.02415,1.62861 -3.96833,0.38867 -6.14978,-8.07609 -1.6269,-6.3131 -3.16084,-9.98995 -4.35957,-10.44993 -0.92497,-0.35495 -0.85151,-2.06982 0.26917,-6.28414 1.2331,-4.63687 1.19221,-5.97153 -0.22624,-7.39001 -2.36699,-2.36697 -7.47395,-0.99573 -13.82351,3.71168 -4.51038,3.34389 -7.75462,6.88787 -10.29911,11.25065 -3.72542,6.38767 -7.85918,11.31251 -14.53567,17.31746 -3.42903,3.08411 -7.10773,6.84625 -8.17498,8.36031 l -1.94043,2.75284 -0.25711,9.31687 c -0.24286,8.80136 -0.33175,9.50882 -1.60702,12.78595 -0.79504,2.0431 -3.5591,6.78822 -6.72439,11.54383 -2.95594,4.44112 -5.37447,8.54892 -5.37447,9.12846 0,1.44257 1.63258,3.39781 3.71297,4.44677 0.95161,0.47981 3.64718,1.31036 5.99013,1.84566 7.32621,1.67383 8.02687,2.26008 6.64738,5.56173 -0.95081,2.27559 -0.9227,2.95037 0.21578,5.18348 0.52066,1.02123 0.94665,2.31247 0.94665,2.86942 0,0.55695 -1.06839,2.42391 -2.37414,4.1488 -2.89872,3.82914 -3.43755,5.11644 -2.82067,6.73893 0.93287,2.45367 0.58839,3.33977 -2.02335,5.20446 -1.36672,0.97579 -2.55594,1.95425 -2.6427,2.17435 -0.0868,0.2201 -0.72579,0.40486 -1.41997,0.41058 -1.70173,0.014 -4.62667,1.39131 -10.01506,4.71592 -5.79914,3.57807 -6.76183,3.83036 -7.86136,2.06024 -2.7154,-4.37148 -4.75461,-4.95667 -8.35422,-2.39744 -4.09391,2.91067 -5.36023,5.71513 -4.0125,8.88642 0.38197,0.89876 2.7642,4.50953 5.29387,8.02395 6.03296,8.38144 6.56843,9.45239 6.3064,12.61254 -0.16992,2.04911 -0.65536,3.17262 -2.65505,6.14511 -2.58812,3.84722 -2.73362,4.49768 -1.99799,8.93168 0.71486,4.30891 -0.63344,5.13163 -4.54739,2.77476 -1.51733,-0.91368 -3.30857,-1.7712 -3.98059,-1.90559 -0.69621,-0.13925 -3.24259,0.3928 -5.91955,1.23684 -6.81513,2.1488 -12.58412,2.53889 -29.00541,1.96133 -9.55338,-0.33601 -14.39693,-0.69911 -16.39804,-1.22929 -3.90775,-1.03533 -13.7909,-7.21674 -17.59191,-11.00285 -2.51888,-2.50899 -3.22361,-2.95826 -4.64036,-2.95826 -0.91876,0 -1.67049,0.18256 -1.67049,0.4057 0,0.22314 -1.07349,1.4792 -2.38554,2.79126 -3.73749,3.73749 -9.6037,6.43989 -16.18723,7.45699 -1.12163,0.17329 -2.57947,0.97413 -3.9804,2.18664 -1.21578,1.05227 -2.75933,2.12187 -3.43007,2.37688 -2.14978,0.81734 -13.92812,1.06162 -20.31365,0.42129 -5.59159,-0.56071 -6.37892,-0.53321 -11.43163,0.39932 -7.32712,1.3523 -8.1009,1.30949 -10.78374,-0.59668 -3.17149,-2.25335 -4.20111,-2.71891 -12.18913,-5.51146 -9.76174,-3.41264 -11.31689,-4.25495 -13.04678,-7.0664 -1.05944,-1.72176 -2.34309,-2.88656 -5.01944,-4.55467 -5.21975,-3.2533 -8.76081,-6.36418 -11.86102,-10.41999 l -2.73197,-3.57408 -2.12995,0.18957 c -2.29504,0.20425 -16.50298,5.67958 -18.10574,6.97743 -1.71191,1.38621 -1.62785,4.94166 0.3086,13.05712 0.93732,3.92821 1.7042,8.27909 1.7042,9.66863 0,3.06314 -0.51195,3.58573 -8.31859,8.49201 -2.8831,1.81194 -6.23904,4.36034 -7.45761,5.66309 -2.38512,2.54991 -7.43357,10.06638 -9.49971,14.14384 -1.05632,2.08461 -1.65033,2.67364 -3.49946,3.4701 -5.07964,2.1879 -20.45555,7.09054 -26.9075,8.57951 -0.8153,0.18816 -1.79001,-0.65537 -4.96988,-4.30113 z"
       style="fill:#1059d3;fill-opacity:0.992157;stroke:#0f59d4;stroke-width:1.2;stroke-miterlimit:4;stroke-dasharray:none;stroke-opacity:1" />
    <path
       sodipodi:nodetypes="cssssssssssssscsscsssssssssssssssssssssssssssssssssssssssccsssssssssssssssssssssssssssssscccccsssssscsccccccssscsssssssscssscssssscssssssssssssssccsssssssssssssscssssssssssssccccccsssscssssssssssssssssscssssssssscsssssssscssssssssssssssscssscsssssssssssssssssscssssssssssscsscssscsssssssssssssssssssssssssssssssssssssscsssssssssssssss"
       transform="translate(3.0000002,-0.2989894)"
       id="path878"
       d="m -52.698561,453.58001 c -5.038604,-3.9564 -9.406456,-6.35193 -12.285902,-6.73815 -1.07927,-0.14476 -1.962309,-0.41408 -1.962309,-0.59849 0,-1.35292 2.280173,-8.56917 4.67481,-14.79476 4.329202,-11.25508 4.379323,-11.50219 4.778079,-23.5577 0.27696,-8.37329 0.532476,-11.1437 1.195359,-12.96059 0.822329,-2.25391 0.818727,-2.38802 -0.146186,-5.4432 -1.110606,-3.51648 -2.259002,-11.43159 -1.823328,-12.56694 0.369427,-0.96271 2.193181,-0.94398 5.362539,0.0551 2.379619,0.75011 2.628636,0.74896 4.240161,-0.0195 1.69328,-0.80747 1.709826,-0.84351 1.507487,-3.28345 -0.156253,-1.8842 -0.673567,-3.18876 -2.18978,-5.52216 -2.154139,-3.31514 -3.29566,-6.06484 -5.110268,-12.30961 -3.846069,-13.23581 -4.537717,-21.97686 -2.374254,-30.00582 l 0.747689,-2.77478 -2.342485,-9.29492 c -2.072278,-8.22276 -2.704992,-10.00756 -5.485127,-15.47276 l -3.142642,-6.17783 0.646328,-2.34197 c 0.636934,-2.30793 0.703735,-2.36963 4.596043,-4.24532 2.172343,-1.04684 4.248727,-2.31227 4.614186,-2.81206 1.625948,-2.22362 -0.149179,-7.07644 -4.711877,-12.88128 -2.331412,-2.96611 -2.670125,-3.66297 -2.670125,-5.49346 0,-1.64947 0.338403,-2.53984 1.587223,-4.17612 2.651364,-3.47399 3.690839,-5.94702 3.732243,-8.87944 0.03901,-2.76256 1.151351,-4.79663 2.623062,-4.79663 0.372728,0 1.100846,-0.53796 1.618041,-1.19547 0.517196,-0.65751 2.60705,-2.46422 4.644121,-4.0149 4.238991,-3.22688 5.650346,-5.54833 6.805783,-11.19444 1.254388,-6.12965 2.875531,-7.73461 7.812608,-7.73461 1.972237,0 2.504262,-0.19934 3.328456,-1.24714 1.164095,-1.4799 1.232928,-2.76752 0.271014,-5.0697 -1.398927,-3.3481 -0.909634,-5.29603 2.181097,-8.68315 1.956607,-2.14425 2.074688,-2.47085 2.734365,-7.56309 0.24179,-1.86645 0.728143,-3.99639 1.080785,-4.73321 0.597267,-1.24796 0.900053,-1.36562 4.422289,-1.71853 5.020491,-0.50303 9.973867,-0.14996 15.0265401,1.07106 6.10158805,1.47451 8.4941309,1.47872 10.0723518,0.0178 2.0178755,-1.86794 3.2301523,-4.0955 5.4093831,-9.93976 1.1163298,-2.99376 2.462415,-6.16223 2.991305,-7.04104 0.955532,-1.58773 0.978981,-1.59603 3.705897,-1.31101 1.509357,0.15776 5.095448,1.04692 7.969085,1.9759 4.483451,1.4494 5.73721,2.09626 8.836072,4.55881 4.400233,3.4967 6.524842,4.45617 10.829014,4.89035 4.402902,0.44414 5.90347,1.13484 9.380052,4.31759 3.3103,3.03051 8.488712,5.68092 12.563223,6.43009 5.204491,0.95693 8.186372,-0.83687 11.866829,-7.13868 2.393697,-4.09858 4.28903,-5.60026 9.972173,-7.90102 4.482481,-1.81468 4.518042,-1.82046 11.359726,-1.84481 7.185615,-0.0256 7.899175,-0.19257 9.881925,-2.31249 1.50471,-1.60882 1.43096,-4.36394 -0.23819,-8.89865 -1.12588,-3.05874 -1.31446,-4.40931 -1.57561,-11.28441 -0.33543,-8.83068 -0.39713,-9.02189 -5.05776,-15.67309 -5.549169,-7.91927 -5.346943,-12.64593 0.80917,-18.91296 3.80238,-3.87088 4.3261,-5.3986 3.0379,-8.86165 -0.4558,-1.22532 -1.01372,-2.43021 -1.23981,-2.67752 -0.2261,-0.24731 -0.41108,-0.62005 -0.41108,-0.82831 0,-0.20826 132.00356,-0.37603 293.34125,-0.37282 l 293.34125,0.006 1.30202,3.21748 c 1.03004,2.54531 1.84652,3.68757 3.90845,5.46769 3.11678,2.69082 3.80073,3.90968 4.73767,8.44268 1.01201,4.89606 1.46555,5.79702 3.24136,6.43917 2.63919,0.95434 5.38706,0.68228 8.3582,-0.82753 1.50256,-0.76355 3.12639,-1.30887 3.60846,-1.21182 0.48208,0.097 1.42787,0.2912 2.1017,0.43145 1.33434,0.27771 2.51016,2.44568 3.01766,5.56369 0.23841,1.46499 0.13281,1.78606 -0.67136,2.04131 -1.49286,0.47381 -6.10699,4.41811 -7.6334,6.52523 -0.75969,1.04872 -1.38125,2.44028 -1.38125,3.09234 0,1.71486 2.83202,4.17838 7.99601,6.95553 5.49579,2.95557 7.62361,5.14769 7.62361,7.85388 0,1.59201 -0.26558,2.15759 -1.49967,3.19356 -5.03572,4.22729 -5.18917,6.19804 -1.03894,13.34083 1.1541,1.98627 2.22186,4.37261 2.37285,5.30298 0.32901,2.02746 -0.0374,2.32529 -5.98331,4.86383 -4.34187,1.85371 -6.6834,3.41215 -7.88729,5.24952 -0.71524,1.09156 -0.68447,1.46143 0.48302,5.80605 0.68585,2.55212 1.24697,5.51035 1.24697,6.57386 0,1.67438 -0.20627,2.05889 -1.5383,2.86775 -0.84606,0.51377 -3.0746,1.48218 -4.95227,2.15203 -1.87767,0.66985 -4.5401,1.93948 -5.91652,2.8214 -1.37642,0.88191 -4.08401,2.51845 -6.01687,3.63674 -1.9329,1.11829 -4.45169,2.9706 -5.59736,4.11623 -2.507,2.50702 -0.58355,21.85693 -1.00708,25.34042 -0.28134,2.31379 -4.56851,-12.84962 -5.30685,-19.43277 -0.44738,-3.98846 -0.89903,-7.33741 -1.00377,-7.44211 -0.1047,-0.10471 -3.90576,1.3125 -8.44676,3.14935 -22.45558,9.08334 -39.55187,13.43924 -54.99693,14.01247 l -7.45482,0.27667 V 220.28971 199.1562 h -14.91868 -14.91864 l 0.24206,-1.06498 c 0.13315,-0.58573 0.99582,-4.94516 1.91705,-9.68761 3.26166,-16.79083 7.47943,-32.03847 12.18368,-44.0449 1.04775,-2.67412 1.80724,-4.95978 1.68778,-5.07926 -0.4481,-0.4481 -15.15085,-2.0939 -23.58568,-2.64014 -9.43454,-0.61098 -32.25812,-0.34194 -41.41567,0.4882 -12.17668,1.10383 -19.21607,2.05876 -18.99233,2.57641 9.48414,21.94642 15.22412,41.09328 17.07807,56.96734 l 0.29025,2.48494 h -15.63596 -15.6359 v 20.5895 20.5895 l -4.61489,-0.004 c -15.3299,-0.0129 -32.90752,-4.25013 -56.35754,-13.58545 -5.5497,-2.20929 -10.15276,-3.94264 -10.2291,-3.8519 -0.17291,0.20561 -1.47677,12.23181 -2.25008,20.75448 -0.76707,8.45348 -0.7701,37.28409 -0.005,45.20224 0.61233,6.335 2.03201,17.87923 2.22892,18.12433 0.061,0.0759 2.21424,-0.69667 4.78495,-1.71693 10.54509,-4.18513 23.83469,-8.03422 38.57403,-11.17228 7.66479,-1.63185 25.97387,-4.99846 27.18382,-4.99846 0.47072,0 0.64633,2.80283 0.79329,12.66137 0.17281,11.5902 0.27992,12.94166 1.26628,15.97461 1.92178,5.90932 4.9625,9.48086 9.07623,10.66066 0.88677,0.25432 6.2594,0.4624 11.93922,0.4624 h 10.32684 l -0.24689,2.01162 c -0.13579,1.10639 -0.37908,3.60908 -0.54062,5.56154 -1.0203,12.33228 -5.69227,29.19199 -13.41234,48.40122 l -3.71501,9.24374 1.71026,0.26507 c 15.27187,2.36693 45.35678,3.42208 61.79539,2.16733 7.94627,-0.60654 20.05129,-2.08264 20.46407,-2.49541 0.16183,-0.16183 -0.67405,-2.80046 -1.85745,-5.86365 -5.43762,-14.07482 -10.0465,-31.80278 -13.78399,-53.02003 l -1.10478,-6.27152 h 8.74926 c 9.81433,0 11.50887,-0.322 14.30923,-2.719 2.43912,-2.0878 3.93709,-4.69431 5.23778,-9.11405 0.91801,-3.11934 1.07099,-4.97082 1.26117,-15.26463 0.11904,-6.44309 0.38443,-11.71472 0.58976,-11.71472 1.17166,0 22.86911,4.11605 30.26297,5.74095 13.11835,2.88291 27.44533,7.16171 37.05595,11.06684 1.59296,0.64728 2.9965,1.07664 3.119,0.95414 0.38656,-0.38654 1.91738,-13.39664 2.499,-21.23792 0.52482,-7.07576 -2.01188,-61.57097 -2.61068,-66.54575 -0.21829,-1.81339 1.54286,15.7708 1.98746,17.195 0.81411,2.60772 4.0868,11.31085 6.25016,12.45485 1.8265,0.9659 2.71398,1.08647 8.01438,1.08882 7.06694,0.003 9.01286,0.45543 10.73878,2.49614 2.04271,2.41533 4.16575,7.37291 4.19178,9.78842 l 0.0232,2.13047 -2.12995,0.39719 c -4.46982,0.83353 -6.12185,1.42037 -7.1846,2.55221 -0.95413,1.01611 -1.10436,1.67811 -1.14298,5.03609 -0.0589,5.1192 0.0695,4.73938 -2.11381,6.25242 -2.45379,1.70049 -3.02088,2.72671 -2.27762,4.12196 0.72195,1.35536 1.2685,1.77309 5.75119,4.39545 2.02501,1.18466 4.47445,3.01284 5.4432,4.06263 2.31246,2.506 3.2619,2.83644 6.58869,2.29312 3.52393,-0.57552 5.25818,-0.0124 7.45714,2.42166 1.92983,2.13608 5.50402,9.48154 5.56716,11.4413 0.0538,1.66983 -1.00718,2.81675 -4.31007,4.6592 -3.39012,1.89108 -4.78519,3.1792 -4.78519,4.41832 0,1.4324 2.0848,8.77335 2.98411,10.50753 1.39199,2.68431 3.21551,3.74701 8.81183,5.13539 l 5.2491,1.30223 0.66374,2.43008 c 2.34071,8.57024 3.62285,16.06693 4.06119,23.74621 0.645,11.29977 1.64437,14.24229 5.19883,15.30724 3.52255,1.05538 11.67685,1.44395 19.81926,0.94444 4.25645,-0.26112 7.85843,-0.35535 8.00435,-0.20941 0.14597,0.14594 0.31471,0.85229 0.37497,1.56965 0.0603,0.71738 0.26615,2.50346 0.45746,3.96907 0.34231,2.62232 0.37894,2.67387 2.29912,3.23611 3.03768,0.88947 7.30794,2.89402 7.55904,3.54839 0.53542,1.39533 -1.07032,2.8954 -5.84444,5.45981 -6.44394,3.46134 -7.27405,4.56847 -6.98225,9.31212 0.28868,4.69244 1.90143,7.8386 5.89305,11.49616 l 3.11881,2.85785 -415.05314,0.1186 -415.053385,0.1186 -0.236661,19.50267 -0.236661,19.50267 z M 221.4241,416.05571 c 0.58205,-0.6534 1.54702,-9.23357 4.56991,-40.63386 2.10763,-21.89304 3.83206,-40.02839 3.83206,-40.30077 0,-0.27238 2.72157,2.30449 6.04793,5.72637 l 6.04794,6.22159 -0.0131,5.67987 c -0.0122,5.28154 0.0831,5.88807 1.35799,8.6488 1.67951,3.63685 5.82527,7.6844 10.23797,9.99544 4.20701,2.20331 6.79558,5.09909 10.6064,11.8651 4.07155,7.22899 5.30797,8.53971 8.05559,8.53971 1.12598,0 2.27127,-0.28398 2.56302,-0.63552 0.67426,-0.81243 1.46635,-8.28956 1.46199,-13.80079 -0.006,-7.5097 -1.44741,-11.23269 -6.56851,-16.96503 -4.44561,-4.9762 -5.23449,-7.11889 -5.7782,-15.69419 -0.64864,-10.23036 -2.11273,-14.03118 -8.2454,-21.40536 -1.89855,-2.28291 -3.38212,-4.22054 -3.29681,-4.30586 0.0853,-0.0853 15.67017,11.56928 34.63302,25.89909 25.31739,19.13179 34.81477,26.05782 35.74574,26.06784 1.55409,0.0168 2.75541,-1.10366 2.75541,-2.56982 0,-0.74774 -8.02013,-10.86137 -25.24457,-31.83417 -13.88452,-16.90605 -25.36648,-30.93552 -25.51547,-31.1766 -0.16233,-0.26264 2.60447,-0.41059 6.90334,-0.36913 10.73413,0.10352 10.13671,0.0273 11.31895,1.44501 4.66374,5.59282 7.87275,7.72126 13.04796,8.65433 3.29945,0.59488 8.49794,0.0547 12.0916,-1.25652 3.33484,-1.21675 7.59019,-0.90796 14.581,1.05809 7.58457,2.13302 10.27837,2.28873 11.97767,0.69232 2.01462,-1.89264 1.60517,-3.12346 -2.78088,-8.35933 -7.60208,-9.07502 -11.3973,-11.40736 -19.54872,-12.01358 -2.81271,-0.20919 -5.753,-0.53562 -6.53398,-0.72543 -2.94911,-0.71671 -6.09334,-2.74151 -10.85559,-6.99072 -5.12204,-4.57024 -8.97677,-6.84287 -13.28382,-7.83172 -2.17197,-0.49866 -10.12155,-1.45257 -12.26693,-1.47196 -0.49896,-0.005 -0.79422,-0.12118 -0.65614,-0.25926 0.13808,-0.13809 19.28987,-2.90493 42.55953,-6.14855 23.26966,-3.24361 42.78156,-6.00859 43.35978,-6.14437 2.24451,-0.5271 2.58404,-4.08581 0.47392,-4.96718 -0.57855,-0.24166 -18.41099,-2.063 -39.62765,-4.04743 -21.21665,-1.98443 -38.88062,-3.70456 -39.25327,-3.82253 -0.46637,-0.14763 -0.0976,-0.68571 1.1833,-1.72649 1.02347,-0.83161 3.94616,-3.49631 6.49486,-5.92156 l 4.63402,-4.40954 3.91659,0.31779 c 9.08732,0.73734 15.89765,-3.09505 20.27528,-11.40954 0.95511,-1.81406 2.44365,-4.02512 3.30787,-4.91347 1.76775,-1.81711 6.21416,-4.77986 10.78525,-7.18646 4.36277,-2.29693 6.64233,-4.58058 6.64233,-6.65423 0,-2.82967 -0.65137,-3.22989 -6.16342,-3.78703 -2.7278,-0.27571 -7.31053,-0.41327 -10.18384,-0.30569 -4.60032,0.17224 -5.59213,0.36778 -8.30523,1.63739 -1.69457,0.79299 -4.45129,2.66444 -6.12604,4.15879 -3.32293,2.965 -6.13391,4.77255 -8.58563,5.52083 -0.868,0.26492 -4.56011,0.67063 -8.20469,0.90159 -10.02826,0.63548 -14.04739,2.17696 -20.97487,8.0446 -1.90408,1.61277 -3.57248,2.8218 -3.70756,2.68672 -0.13507,-0.13507 11.31011,-15.54578 25.43374,-34.24601 14.12363,-18.70023 25.7758,-34.48713 25.89371,-35.08199 0.28072,-1.41629 -1.12518,-2.94443 -2.69729,-2.93182 -0.91928,0.007 -8.90207,6.37411 -31.7324,25.30842 -16.77727,13.91421 -30.51797,25.25175 -30.5349,25.19454 -0.0169,-0.0572 0.0783,-3.87776 0.21153,-8.4901 l 0.24229,-8.38606 3.412,-3.11246 c 4.59576,-4.19229 6.38237,-7.73049 6.66993,-13.20908 0.16221,-3.09066 -0.0247,-4.71692 -0.90606,-7.88295 -1.62562,-5.83959 -1.47577,-9.64982 0.67709,-17.21619 2.0127,-7.0738 2.17761,-9.52256 0.76243,-11.32168 -1.7767,-2.25871 -3.21794,-1.77236 -8.97966,3.03018 -8.7879,7.32494 -11.15506,11.47928 -11.7967,20.7031 -0.48107,6.91538 -1.69314,9.47821 -7.49352,15.84446 -2.31301,2.53867 -4.77625,5.66447 -5.47387,6.94623 -1.66009,3.05012 -2.95555,8.22981 -3.38244,13.52408 -0.18892,2.34295 -0.48496,4.52324 -0.65788,4.84511 -0.17293,0.32186 -2.93207,-18.2087 -6.13144,-41.17901 -3.19937,-22.97032 -6.01946,-42.5501 -6.26686,-43.51062 -0.48629,-1.88794 -1.61396,-2.55716 -3.50793,-2.08181 -0.61468,0.15428 -1.26102,0.7324 -1.43632,1.28471 -0.1753,0.55232 -1.96694,18.23289 -3.98144,39.29016 -2.01449,21.05728 -3.74896,38.36465 -3.85439,38.46083 -0.10542,0.0962 -2.74761,-2.49559 -5.87154,-5.75949 l -5.67986,-5.93438 -0.0535,-5.48744 c -0.0664,-6.8042 -1.03616,-9.71612 -4.49708,-13.50292 -2.21569,-2.42432 -7.80308,-6.42084 -8.97674,-6.42084 -1.37643,0 -6.03374,-5.75831 -8.95546,-11.07255 -1.81512,-3.30148 -3.82867,-6.27569 -4.91082,-7.25377 -1.5947,-1.44134 -2.05806,-1.6215 -3.54836,-1.37966 -0.94277,0.15299 -1.94069,0.588 -2.2176,0.96669 -0.2769,0.37869 -0.76297,3.74282 -1.08015,7.47585 -0.97068,11.42437 0.38626,16.57345 5.99235,22.7388 4.91688,5.40739 5.64711,7.38984 6.23378,16.92396 0.61317,9.96459 2.1322,13.68431 8.69807,21.29948 1.45896,1.69213 2.65562,3.24349 2.65922,3.44747 0.004,0.20397 -6.43654,-4.49971 -14.31143,-10.45265 -43.84985,-33.14777 -53.72051,-40.5653 -54.84632,-41.21551 -1.12498,-0.64974 -1.36023,-0.64062 -2.48494,0.0963 -2.78815,1.82687 -3.17414,1.27303 23.85438,34.22777 13.80319,16.82964 25.03867,30.64086 24.96773,30.69159 -0.0709,0.0507 -4.14019,-0.0332 -9.04279,-0.18657 l -8.9138,-0.27881 -0.99657,-1.41997 c -1.95957,-2.79209 -5.26299,-5.57953 -8.34047,-7.0377 -2.82908,-1.34048 -3.55758,-1.48121 -7.6245,-1.47281 -3.3734,0.007 -5.38327,0.28666 -8.04648,1.11973 -4.62614,1.44709 -8.56789,1.18539 -16.54145,-1.09825 -7.8137,-2.23785 -9.956509,-2.16451 -11.635699,0.39826 -1.037005,1.58267 -0.660984,2.53736 2.494303,6.33285 8.733366,10.50535 12.258386,12.6668 21.789126,13.36049 7.08619,0.51576 9.62122,1.69471 16.07035,7.47372 7.25841,6.5042 11.09622,8.12993 21.38214,9.05769 2.96786,0.26769 5.45998,0.55057 5.53803,0.62863 0.0781,0.0781 -18.75079,2.76683 -41.84189,5.97506 -23.091108,3.20822 -42.813547,6.00755 -43.827648,6.22072 -2.157965,0.45364 -2.708334,1.11625 -2.539387,3.05726 0.08616,0.98983 0.479835,1.57317 1.306615,1.93607 0.650818,0.28567 18.755381,2.29514 40.23236,4.4655 21.47698,2.17036 39.1185,3.9955 39.20337,4.05587 0.0849,0.0604 -0.87361,1.03431 -2.12995,2.1643 -1.25634,1.12999 -3.56223,3.38041 -5.12419,5.00093 -1.56196,1.62053 -3.6258,3.55724 -4.58631,4.3038 -1.66421,1.29352 -1.88404,1.33857 -4.67176,0.95732 -5.90247,-0.80721 -11.97424,1.14601 -15.96126,5.13456 -1.25217,1.25265 -3.47122,4.30099 -4.93123,6.7741 -3.0402,5.14978 -4.41662,6.348 -12.448411,10.83673 -6.234832,3.48446 -7.809811,5.00845 -7.809811,7.55693 0,2.88138 0.71057,3.19328 8.756452,3.84352 11.26598,0.9105 15.69822,-0.24433 21.83368,-5.68877 5.72952,-5.08424 9.84576,-6.59644 17.97909,-6.60508 1.85184,-0.002 4.51428,-0.21524 5.91652,-0.47394 3.77692,-0.69682 9.63272,-3.8114 13.83292,-7.35746 2.04063,-1.72282 3.81552,-3.02709 3.94422,-2.8984 0.12869,0.1287 -11.32739,15.53418 -25.45796,34.23442 -18.69629,24.74245 -25.74377,34.40794 -25.88228,35.49706 -0.15492,1.21826 0.0495,1.65377 1.09892,2.34139 1.17928,0.77269 1.39784,0.78242 2.5623,0.11412 0.70018,-0.40185 14.86399,-11.74176 31.47514,-25.1998 16.61116,-13.45804 30.23101,-24.40664 30.26635,-24.33021 0.0354,0.0764 -0.0441,4.22685 -0.17659,9.22316 l -0.24084,9.0842 -3.64005,3.35404 c -4.9553,4.56595 -6.21058,7.14754 -6.45685,13.27912 -0.15388,3.83088 0.0172,5.27298 1.09441,9.22717 1.51504,5.5612 1.42364,7.0121 -0.9774,15.5153 -1.52572,5.40329 -1.98718,9.22754 -1.32247,10.95973 0.29134,0.75924 2.52643,2.15115 3.45425,2.15115 0.26511,0 2.89535,-2.014 5.84496,-4.47554 9.34833,-7.8015 11.93087,-12.56427 12.14367,-22.3956 0.1088,-5.02613 1.73405,-8.14687 7.56678,-14.52935 6.03822,-6.60734 7.99081,-11.43256 8.81682,-21.78798 0.23305,-2.92173 0.46125,-3.96253 0.72645,-3.31326 0.21266,0.52066 2.98554,19.79669 6.16195,42.83564 3.4437,24.97766 6.03832,42.31893 6.42681,42.95396 0.79699,1.30276 2.99688,1.43097 4.06078,0.23666 z"
       style="fill:#1059d3;fill-opacity:0.992157;stroke:#0f59d4;stroke-width:1.2;stroke-miterlimit:4;stroke-dasharray:none;stroke-opacity:1" />
    <path
       transform="translate(3.0000002,-0.2989894)"
       id="path880"
       d="m 83.032574,60.206851 c 1.01471,-0.766966 6.962747,-2.755259 9.879178,-3.302381 0.990784,-0.185873 1.920499,-0.648252 2.066035,-1.027515 0.658968,-1.717241 -3.811014,-14.74678 -5.91825,-17.251088 l -1.242848,-1.477039 -8.067602,0.411231 c -13.946888,0.71092 -17.873321,0.161834 -20.537037,-2.87197 -3.508095,-3.9955 -2.108205,-8.681411 3.419644,-11.446713 3.240936,-1.621279 4.553233,-2.899575 4.553233,-4.435259 0,-1.065007 -0.891673,-1.945594 -5.543857,-5.474928 -3.049122,-2.313186 -6.656755,-5.2726124 -8.016962,-6.5765006 l -2.473105,-2.3707085 0.954928,-5.18115208 c 1.466661,-7.95765362 2.721974,-9.79198882 7.125634,-10.41238582 1.929858,-0.271881 2.363485,-0.169398 3.287772,0.77701 2.717831,2.7828768 5.263913,3.44078 7.946752,2.0534309 1.81746,-0.9398469 4.117446,-4.5383709 4.731899,-7.4034689 0.707546,-3.299173 -0.100684,-4.933492 -4.698206,-9.500234 -2.083497,-2.069548 -3.788177,-4.028192 -3.788177,-4.352545 0,-0.324353 0.941633,-1.692888 2.092519,-3.041183 1.150885,-1.348296 2.871932,-3.734501 3.824549,-5.302678 2.356515,-3.879242 9.454881,-18.699954 10.637026,-22.209102 2.018505,-5.991838 0.932674,-9.74007 -4.266259,-14.72689 -3.217894,-3.086608 -5.278786,-4.319777 -13.234479,-7.919073 -1.692125,-0.765546 -3.565564,-1.795623 -4.163197,-2.289061 l -1.086604,-0.897153 0.835254,-2.603271 c 0.459389,-1.431798 1.909201,-4.733219 3.221803,-7.336489 2.829659,-5.612035 2.802328,-5.600845 9.318917,-3.814625 2.429272,0.665874 4.986279,1.210829 5.682239,1.211018 2.074691,4.73e-4 9.223654,-5.953548 12.059516,-10.043918 2.076683,-2.99535 0.887514,-4.69435 -6.138702,-8.77052 -1.746121,-1.013 -3.030112,-1.98646 -2.853314,-2.16326 0.176798,-0.1768 3.785153,-0.32145 8.018567,-0.32145 6.220198,0 7.833725,-0.13661 8.409057,-0.71194 0.39157,-0.39157 1.055473,-2.25604 1.475343,-4.14327 l 0.76339,-3.43131 1.99006,0.15496 c 1.09453,0.0852 5.61096,-0.59096 10.03652,-1.50266 10.81605,-2.22818 17.28896,-3.14547 22.19613,-3.14547 3.69169,0 4.67328,0.2145 10.11568,2.21054 9.68764,3.55301 12.11538,3.39315 27.48849,-1.81005 9.38547,-3.17661 20.58586,-6.07869 23.47951,-6.08365 1.05497,-0.002 4.06411,0.35827 6.68696,0.80016 4.73781,0.79822 4.83548,0.79504 15.0232,-0.48935 10.98529,-1.38494 12.03486,-1.64683 17.12709,-4.27363 4.6269,-2.38677 5.63212,-2.28985 12.36625,1.19226 3.09099,1.5983 7.37031,3.80933 9.5096,4.9134 4.43813,2.29047 8.88041,3.30665 12.87271,2.94464 5.62642,-0.51019 8.99171,-3.43512 14.0281,-12.19251 4.69686,-8.167 4.80019,-8.27573 7.85877,-8.2694 2.05199,0.004 3.60258,0.49507 8.20967,2.59864 5.01416,2.28943 6.04045,2.59393 8.75645,2.59802 2.88812,0.004 3.31998,-0.14643 7.04948,-2.46149 5.33896,-3.31411 7.14928,-3.5735 11.15993,-1.59906 3.43979,1.6934 8.81148,7.0638 9.80008,9.79773 0.38042,1.05204 0.81831,1.54081 1.2366,1.3803 0.35618,-0.13668 2.36424,-0.68681 4.46235,-1.2225 5.24342,-1.33877 7.50088,-2.26483 12.37982,-5.07851 4.83243,-2.78685 3.88903,-2.78186 14.02363,-0.0742 9.78374,2.61395 11.15643,2.87052 15.30924,2.86154 6.48926,-0.014 9.06538,-2.07874 10.98686,-8.80574 0.95628,-3.34789 4.83787,-11.45843 6.57181,-13.73174 1.33128,-1.74541 4.53107,-3.42098 11.66544,-6.10862 4.76638,-1.79558 7.9508,-4.03521 9.21588,-6.4816 0.3918,-0.75764 1.24972,-3.44573 1.90649,-5.97351 0.65678,-2.52779 1.27186,-4.6737 1.36685,-4.7687 0.55088,-0.55087 27.5052,3.4157 28.43077,4.18385 0.4701,0.39015 0.25675,1.32138 -1.00385,4.38152 -0.88046,2.13733 -1.60474,4.10513 -1.6095,4.37288 -0.005,0.26775 1.49507,0.87418 3.33295,1.34764 3.4761,0.89546 9.40947,3.61694 10.34607,4.74546 0.41769,0.5033 0.10814,1.6318 -1.36733,4.98471 -2.18127,4.95677 -2.33351,6.7069 -0.93301,10.72573 0.8017,2.30053 0.91983,3.43301 0.66692,6.39391 -0.36153,4.23264 0.3288,6.34714 5.16093,15.80799 3.80272,7.44537 5.30128,8.91445 12.82444,12.57212 l 5.9479,2.89181 -1.03339,1.83867 c -0.56836,1.01126 -3.18094,4.31833 -5.80572,7.34902 -14.41938,16.649245 -17.03095,21.387609 -13.64713,24.760993 0.7159,0.713694 2.8991,1.907265 4.85155,2.652383 1.95246,0.745117 3.71613,1.493141 3.91929,1.662278 0.20315,0.169137 0.42846,1.994356 0.50068,4.056047 0.14716,4.201394 0.95778,6.159891 4.77323,11.532441 1.19159,1.677883 2.16653,3.415964 2.16653,3.862401 0,0.446442 -0.90523,1.916684 -2.01162,3.267209 -4.57028,5.578742 -5.08821,6.323003 -5.08821,7.311635 0,1.406235 2.92977,4.726209 5.49989,6.2324 3.24532,1.901888 7.4176,3.01835 11.27974,3.01835 2.81703,0 4.01391,-0.259191 6.58937,-1.426961 l 3.1471,-1.426962 9.57973,1.904974 c 5.26886,1.047736 10.64471,2.20046 11.94634,2.561614 4.32986,1.201371 5.81088,1.264371 12.15818,0.517199 3.46575,-0.407971 9.81579,-0.952371 14.11119,-1.209773 4.2954,-0.257407 9.51377,-0.587289 11.59639,-0.733072 2.9069,-0.203481 4.753,-0.03607 7.94646,0.720605 5.42152,1.2846 6.41081,1.272885 6.69807,-0.07931 0.12444,-0.585736 0.2998,-3.301421 0.38964,-6.034855 0.2332,-7.093888 0.96373,-8.371403 5.93224,-10.374208 4.31451,-1.739193 8.2917,-2.865136 10.14896,-2.873187 0.71287,-0.0033 3.16232,0.76717 5.44321,1.711688 5.27432,2.184073 7.99705,2.262631 11.55345,0.333333 3.32869,-1.80579 7.16581,-5.386309 9.51444,-8.878185 2.71028,-4.02963 3.9679,-5.519274 5.92405,-7.01712 2.09904,-1.607273 4.65871,-1.705715 10.22299,-0.393174 2.11821,0.499657 5.87473,1.058338 8.34784,1.241518 7.86543,0.582579 11.8046,2.077088 13.74342,5.214181 0.81203,1.313861 0.94622,2.032506 0.68054,3.644384 -0.42703,2.590936 -2.26347,6.991145 -4.30084,10.304971 -3.63042,5.904984 -4.03431,17.460159 -0.83446,23.873685 2.36779,4.745767 6.62466,7.911311 15.58805,11.591715 2.61832,1.075085 5.33401,2.486422 6.03485,3.136307 1.16953,1.084437 1.26978,1.462252 1.219,4.5940434 -0.0303,1.876835 -0.19018,4.7968951 -0.35499,6.4890209 l -0.29966,3.07659244 -4.015,2.12994856 c -2.41186,1.2794886 -4.26364,2.602428 -4.63771,3.3132534 -1.49607,2.8428661 0.30373,8.3943643 5.70798,17.6060463 4.93519,8.412104 4.74974,7.79573 4.37629,14.544832 -0.26786,4.841198 -0.50878,6.216449 -1.29132,7.371501 -1.41911,2.094696 -4.70013,4.496464 -10.82213,7.922055 -7.31604,4.093738 -7.7177,4.378682 -9.21321,6.536718 L 654.922,60.945948 368.50828,60.930897 C 113.9926,60.91752 82.199034,60.836881 83.032574,60.206851 Z"
       style="fill:#1059d3;fill-opacity:0.992157;stroke:#0f59d4;stroke-width:1.2;stroke-miterlimit:4;stroke-dasharray:none;stroke-opacity:1" />
    <path
       transform="translate(3.0000002,-0.2989894)"
       id="path882"
       d="m 101.28973,109.57977 c -1.927356,-1.96782 -4.615284,-6.00604 -4.985515,-7.49 -0.157542,-0.63147 0.03609,-3.29055 0.430298,-5.909076 1.141888,-7.585025 -0.109981,-9.913523 -5.947598,-11.062637 -4.003311,-0.788038 -5.558308,-1.40755 -6.107166,-2.4331 -0.250378,-0.467836 -0.455233,-2.468916 -0.455233,-4.446845 0,-4.123162 -0.649524,-6.016203 -3.083308,-8.986316 -2.182841,-2.663869 -2.565959,-4.775418 -1.184988,-6.531039 l 1.02375,-1.301487 h 286.83062 c 281.75468,0 286.82557,0.01594 286.5447,0.900847 -0.76943,2.424222 -1.0778,6.187276 -0.68111,8.310804 0.4834,2.587359 1.15784,3.777755 3.74151,6.603812 2.87046,3.139778 3.29489,4.398607 3.7294,11.061526 0.38505,5.904576 1.13531,8.775005 2.61449,10.002607 1.21364,1.007248 6.46643,1.958064 13.15636,2.381464 3.82941,0.24237 7.38382,0.66612 7.89875,0.94168 1.39303,0.74554 2.77168,2.90179 4.08335,6.38664 l 1.17038,3.10942 H 396.43241 102.7964 Z"
       style="fill:#fd0202;fill-opacity:1;stroke:#fd0202;stroke-width:1.2;stroke-miterlimit:4;stroke-dasharray:none;stroke-opacity:1" />
    <path
       transform="translate(3.0000002,-0.2989894)"
       id="path884"
       d="m -37.615391,468.00834 c -0.951856,-2.7305 -3.433782,-5.66488 -6.692638,-7.91271 l -3.289914,-2.26926 -0.01503,-14.71768 c -0.0083,-8.09472 0.123832,-16.98726 0.293557,-19.76119 l 0.30859,-5.04351 H 368.11836 783.24752 l 4.99042,3.28941 c 4.25152,2.80238 6.0767,3.65385 12.32691,5.75075 4.03507,1.35374 7.73328,2.80218 8.21825,3.21877 0.76488,0.65702 0.84175,1.19661 0.58005,4.07068 -0.9039,9.92743 -0.88956,12.26479 0.0994,16.17562 1.1355,4.49028 5.00528,12.94121 7.45255,16.27506 l 1.71659,2.33848 h -427.877 -427.877009 z"
       style="fill:#fd0202;fill-opacity:1;stroke:#fd0202;stroke-width:1.2;stroke-miterlimit:4;stroke-dasharray:none;stroke-opacity:1" />
  </g>
</svg>
